<?xml version="1.0" standalone="no"?>
<!DOCTYPE svg PUBLIC "-//W3C//DTD SVG 20010904//EN"
 "http://www.w3.org/TR/2001/REC-SVG-20010904/DTD/svg10.dtd">
<svg version="1.0" xmlns="http://www.w3.org/2000/svg"
 width="310.000000pt" height="225.000000pt" viewBox="0 0 310.000000 225.000000"
 preserveAspectRatio="xMidYMid meet">

<g transform="translate(0.000000,225.000000) scale(0.100000,-0.100000)"
fill="#000000" stroke="none">
<path d="M721 2200 c-40 -94 -64 -217 -65 -346 l-1 -121 -89 -17 c-144 -28
-226 -48 -226 -55 0 -4 41 -53 91 -110 50 -56 90 -104 88 -106 -4 -3 -258
-118 -366 -166 -18 -7 -33 -16 -33 -19 0 -3 113 -54 250 -114 138 -60 250
-111 250 -115 0 -3 -53 -45 -118 -93 -64 -47 -180 -134 -257 -193 -77 -59
-149 -113 -160 -121 -11 -8 -36 -27 -55 -41 l-35 -25 55 6 c30 3 177 17 325
31 149 14 292 28 319 32 l49 6 -91 -114 c-50 -62 -89 -115 -87 -117 2 -3 44 5
92 16 156 38 276 63 279 59 2 -2 -20 -63 -50 -135 -30 -73 -50 -132 -45 -132
10 0 312 131 369 160 21 11 45 20 53 20 8 0 29 -52 56 -142 72 -238 88 -253
251 -246 133 7 140 15 210 246 39 131 45 143 64 139 12 -3 86 -35 166 -72 176
-81 241 -107 248 -101 2 3 -19 62 -47 132 -29 69 -50 128 -48 130 2 3 86 -14
187 -36 100 -23 183 -40 185 -38 2 2 -36 53 -85 113 -48 61 -87 112 -85 113 2
2 95 -6 207 -17 345 -36 521 -52 524 -48 2 1 -17 16 -40 32 -72 49 -571 427
-574 435 -3 7 144 74 400 183 54 23 98 44 98 47 0 3 -55 29 -123 59 -231 102
-277 124 -277 130 1 3 41 51 90 105 50 55 90 103 90 106 0 7 -202 55 -276 66
l-41 6 -1 117 c0 148 -36 320 -81 390 -13 21 -74 -23 -161 -117 l-69 -73 -27
25 -27 24 -51 -20 c-28 -12 -91 -32 -141 -47 -86 -24 -102 -25 -335 -26 -224
0 -252 2 -328 23 -46 12 -108 34 -139 47 l-56 25 -33 -25 -32 -25 -59 67 c-54
61 -136 133 -153 133 -4 0 -17 -22 -29 -50z m226 -178 c34 -42 74 -102 89
-133 l28 -57 96 5 c86 5 105 3 199 -26 143 -43 233 -43 380 0 95 28 116 31
196 26 l91 -5 29 51 c45 82 102 155 189 245 78 80 119 109 77 55 -57 -74 -105
-150 -176 -278 -89 -161 -104 -181 -118 -163 -5 8 -7 0 -4 -22 3 -19 24 -66
46 -105 31 -52 41 -80 41 -113 l0 -43 32 24 c18 14 51 30 73 37 47 15 95 41
95 52 0 4 -20 8 -44 8 -23 0 -57 5 -74 11 l-32 11 20 28 c11 16 28 46 37 67
l17 38 6 -35 c6 -34 6 -34 20 25 l14 60 6 -45 6 -45 8 40 c4 22 11 56 16 75
l8 35 1 -43 c1 -59 21 -44 21 16 0 41 2 44 13 28 12 -17 15 -13 25 40 7 33 13
79 15 104 2 33 5 21 11 -45 10 -98 -5 -228 -30 -277 -18 -35 -13 -35 41 2 l43
30 104 -21 c56 -11 110 -23 118 -25 8 -3 -43 -20 -115 -38 -156 -39 -205 -56
-205 -72 0 -24 139 -105 300 -175 224 -97 227 -98 211 -99 -8 0 -82 7 -165 16
-162 17 -458 15 -588 -5 -216 -34 -308 -112 -308 -261 l0 -45 -102 -40 c-136
-52 -179 -52 -319 -1 l-107 39 -4 72 c-5 98 -34 142 -121 184 -85 41 -213 61
-427 68 -158 5 -218 2 -465 -22 l-50 -5 46 23 c25 13 97 45 160 71 63 27 137
60 164 73 65 33 157 102 150 113 -8 13 -117 47 -235 73 -115 26 -116 25 34 57
l99 21 45 -30 c26 -17 48 -29 49 -27 2 2 -4 23 -13 47 -12 31 -18 84 -20 184
-2 120 -1 132 8 85 5 -30 15 -73 21 -95 9 -38 11 -39 18 -15 6 22 7 19 9 -15
1 -22 5 -49 10 -60 7 -17 9 -16 10 10 3 68 17 69 23 2 8 -89 26 -122 28 -52
l1 50 10 -50 c5 -27 14 -54 20 -60 7 -7 9 0 5 22 -8 40 8 53 18 15 3 -15 18
-44 31 -66 32 -48 25 -57 -60 -63 -64 -6 -66 -7 -50 -24 9 -10 45 -28 79 -39
34 -11 71 -30 80 -40 26 -28 30 -25 30 23 1 23 8 56 17 72 45 79 78 152 78
169 0 19 -1 19 -13 2 -12 -17 -14 -16 -32 10 -10 16 -50 84 -87 152 -70 126
-159 266 -178 277 -5 3 -10 11 -10 16 0 19 123 -100 187 -179z m-49 -986 c78
-26 140 -52 136 -57 -3 -5 -10 -9 -15 -9 -6 0 -160 -59 -342 -131 -183 -72
-381 -151 -442 -175 -60 -24 -110 -42 -112 -41 -5 6 613 466 622 463 6 -2 74
-24 153 -50z m1700 -133 c292 -221 362 -275 362 -279 0 -2 -10 1 -22 6 -128
51 -430 170 -628 247 -135 52 -249 99 -253 103 -5 4 42 25 105 46 62 21 127
44 143 50 17 6 34 12 38 13 4 0 119 -83 255 -186z m-1448 64 c52 -53 118 -190
165 -339 21 -65 40 -118 42 -118 3 0 3 27 0 61 -3 33 -3 58 0 55 13 -13 33
-131 39 -231 4 -63 13 -125 22 -145 l15 -35 7 60 c4 33 12 69 18 80 10 17 11
13 12 -27 0 -44 19 -80 21 -41 1 17 2 17 6 0 3 -12 10 -16 24 -12 15 5 19 1
19 -17 1 -23 1 -23 13 -2 7 12 18 19 25 17 6 -3 12 3 12 13 0 16 1 16 15 -2
14 -18 14 -17 16 16 1 19 1 44 0 55 -1 15 1 17 10 8 15 -15 31 -101 23 -125
-3 -10 -1 -18 4 -18 18 0 30 49 37 141 7 115 24 229 36 249 6 9 7 -10 3 -50
-4 -36 -4 -63 -1 -60 2 3 23 61 46 129 73 218 151 354 225 393 12 6 -2 -14
-30 -44 -29 -30 -63 -77 -77 -105 -34 -66 -91 -272 -117 -419 -35 -201 -64
-266 -127 -283 -55 -16 -189 -14 -221 3 -61 32 -90 99 -117 273 -22 136 -88
372 -123 438 -15 27 -49 72 -77 99 -27 27 -40 44 -27 37 12 -6 40 -30 62 -54z
m275 -117 c15 -17 19 -38 20 -100 0 -43 -4 -76 -9 -73 -19 12 -56 111 -56 151
0 47 15 55 45 22z m290 -32 c-4 -29 -19 -75 -34 -103 l-26 -50 -3 85 c-3 77
-1 87 19 103 40 32 52 23 44 -35z m-227 -34 c2 -45 1 -48 -13 -30 -19 24 -21
90 -2 84 7 -3 13 -25 15 -54z m148 42 c3 -7 -2 -29 -10 -47 l-14 -34 -1 48
c-1 44 13 64 25 33z m-106 -43 c0 -43 -1 -45 -15 -27 -15 20 -20 56 -8 67 16
16 23 4 23 -40z m60 32 c13 -16 6 -47 -15 -65 -13 -11 -15 -6 -15 34 0 47 9
57 30 31z m-500 -84 l85 -18 -267 -132 c-147 -72 -271 -131 -274 -131 -4 0 6
17 22 38 85 114 137 170 203 218 82 60 67 59 231 25z m1119 -7 c73 -49 180
-158 219 -221 17 -29 30 -53 27 -53 -17 0 -533 266 -523 269 21 7 181 39 203
40 11 0 44 -15 74 -35z m-1002 -150 c18 -5 -2 -28 -145 -159 -92 -85 -168
-152 -170 -150 -4 3 55 165 77 215 16 34 135 99 181 100 19 0 45 -3 57 -6z
m843 -30 c43 -22 72 -45 80 -62 19 -42 81 -214 78 -218 -2 -1 -78 67 -170 151
-120 111 -162 155 -150 158 51 14 97 5 162 -29z m-459 -69 c-18 -36 -36 -65
-42 -65 -12 0 -56 71 -65 104 l-6 26 32 -30 c18 -16 36 -30 40 -30 4 0 21 15
37 33 15 19 30 32 32 31 2 -2 -11 -33 -28 -69z m-110 -399 c83 -16 183 8 208
51 8 14 10 15 11 2 0 -19 -17 -41 -50 -63 -25 -17 -118 -22 -179 -10 -34 7
-81 48 -81 71 0 9 11 4 29 -15 17 -16 44 -32 62 -36z"/>
<path d="M1284 1756 c-15 -39 2 -70 61 -116 92 -71 129 -142 93 -178 -17 -17
-33 -15 -18 3 15 19 7 31 -27 38 -16 3 -75 33 -133 66 -110 63 -151 73 -198
47 -49 -27 -76 -98 -52 -136 7 -12 10 -8 10 14 l0 29 23 -33 c33 -48 150 -109
212 -110 44 -1 47 -3 27 -12 -29 -14 -103 2 -176 37 l-51 25 41 -39 c86 -82
216 -77 306 13 20 20 50 39 67 42 17 4 33 14 36 25 9 27 75 27 75 0 0 -13 10
-21 33 -25 19 -3 47 -20 63 -37 91 -96 246 -98 333 -5 30 32 28 32 -32 2 -66
-34 -149 -52 -173 -38 -16 10 -12 11 26 12 54 0 198 73 216 108 18 36 27 39
21 7 -5 -28 -4 -29 10 -10 21 29 9 75 -32 113 -28 26 -43 32 -78 32 -24 0 -47
-4 -53 -9 -15 -16 -217 -121 -230 -121 -20 0 -27 -19 -14 -35 9 -10 9 -15 1
-15 -6 0 -18 11 -27 25 -28 43 0 89 104 168 64 50 77 80 51 117 -8 12 -9 9 -5
-12 9 -40 -1 -54 -59 -87 -29 -16 -68 -48 -88 -71 l-36 -42 -5 33 c-24 140
-24 140 -25 37 l-1 -98 -38 0 -38 0 4 85 c3 59 1 85 -7 85 -6 0 -12 -18 -12
-42 -1 -24 -4 -56 -8 -73 l-6 -30 -25 33 c-14 19 -56 54 -94 79 -65 44 -68 47
-63 79 6 35 1 45 -9 20z m-53 -216 c52 -27 58 -33 49 -50 -21 -40 -72 -34
-104 12 -15 21 -22 68 -11 68 3 0 33 -14 66 -30z m704 3 c-16 -69 -68 -102
-105 -68 -31 28 -24 40 38 68 72 33 76 33 67 0z"/>
<path d="M1319 1583 c46 -40 80 -62 95 -63 15 0 -26 41 -64 65 -62 38 -76 37
-31 -2z"/>
<path d="M1775 1604 c-43 -21 -101 -71 -93 -80 7 -6 112 68 124 87 7 12 4 11
-31 -7z"/>
<path d="M785 1467 c3 -16 3 -44 -1 -63 -6 -33 -7 -34 -55 -34 -51 0 -212 -24
-264 -39 -18 -5 39 -7 150 -4 99 3 185 6 191 8 15 4 6 90 -12 130 l-14 30 5
-28z"/>
<path d="M2293 1454 c-7 -23 -13 -59 -13 -81 l0 -40 188 -5 c103 -3 188 -5
190 -3 7 6 -190 37 -265 42 l-82 6 -3 61 -3 61 -12 -41z"/>
<path d="M854 1435 c3 -22 6 -57 6 -77 0 -38 0 -38 40 -38 62 0 188 -29 253
-57 32 -14 72 -42 89 -62 l31 -36 -6 35 c-10 47 8 27 32 -36 19 -49 19 -49 27
-20 12 48 -21 96 -85 127 -62 30 -198 66 -288 75 -62 7 -62 7 -68 43 -3 20
-13 47 -21 61 -15 24 -15 24 -10 -15z"/>
<path d="M2232 1458 c-6 -7 -16 -34 -22 -59 l-12 -46 -61 -7 c-80 -8 -239 -51
-295 -79 -57 -28 -72 -51 -71 -107 1 -44 1 -45 11 -14 6 17 21 44 35 60 17 21
21 23 14 7 -20 -41 -11 -43 28 -4 55 55 221 111 330 111 l38 0 10 73 c6 39 9
73 8 75 -1 1 -7 -3 -13 -10z"/>
<path d="M1586 1412 c-3 -5 7 -12 23 -15 15 -3 42 -17 59 -31 16 -15 33 -26
37 -26 15 0 -37 59 -58 65 -12 4 -29 9 -39 11 -9 3 -19 1 -22 -4z"/>
<path d="M1417 1382 c-33 -35 -36 -54 -3 -23 13 13 41 29 63 36 l38 14 -36 1
c-26 0 -42 -7 -62 -28z"/>
<path d="M1400 1328 c-39 -29 -52 -33 -100 -32 l-55 2 40 -19 c51 -23 67 -23
113 0 20 11 50 23 66 28 16 4 31 14 34 21 3 9 -2 10 -22 2 -30 -11 -34 -3 -8
16 16 12 16 13 -4 14 -11 0 -40 -15 -64 -32z"/>
<path d="M1628 1348 c31 -15 28 -30 -4 -22 -18 5 -25 3 -20 -4 3 -6 21 -14 39
-17 17 -4 45 -17 61 -28 26 -18 33 -19 75 -8 69 18 73 31 9 29 -50 -1 -60 2
-93 30 -22 20 -46 32 -63 31 -27 0 -27 -1 -4 -11z"/>
<path d="M1358 1141 l-27 -50 57 -52 c66 -60 105 -79 162 -79 51 0 102 26 166
83 l49 45 -24 43 c-34 63 -41 68 -58 42 -15 -22 -22 -23 -133 -23 -104 0 -119
2 -135 20 -10 11 -21 20 -24 20 -3 0 -18 -22 -33 -49z"/>
<path d="M695 1037 c-16 -13 -48 -37 -71 -53 -156 -111 -274 -197 -274 -201 0
-5 -5 -9 188 114 177 112 246 138 91 34 -138 -93 -138 -100 -4 -33 142 71 195
93 195 84 0 -4 -25 -20 -56 -37 -95 -51 -79 -54 48 -9 67 24 127 45 132 47 11
4 -153 66 -194 73 -17 3 -35 -3 -55 -19z"/>
<path d="M2227 1023 l-98 -36 118 -43 c144 -53 168 -55 83 -7 -75 41 -75 42
-69 47 4 5 70 -25 222 -101 48 -24 87 -41 87 -39 0 3 -48 38 -107 77 -58 40
-102 74 -96 76 5 2 62 -29 127 -69 281 -176 283 -175 26 12 -91 65 -172 119
-180 119 -8 0 -59 -17 -113 -36z"/>
<path d="M884 694 c-55 -33 -168 -133 -160 -142 2 -2 26 12 53 31 87 62 163
108 163 98 0 -5 -27 -26 -60 -47 -33 -20 -58 -39 -56 -41 2 -3 60 20 129 51
68 31 129 56 136 56 6 0 11 4 11 9 0 7 -91 21 -140 21 -9 0 -43 -16 -76 -36z"/>
<path d="M2025 721 c-49 -7 -50 -7 122 -81 144 -63 155 -63 53 0 -34 21 -58
40 -53 43 5 3 56 -26 113 -64 57 -38 105 -67 107 -66 8 8 -99 101 -157 137
-68 42 -91 45 -185 31z"/>
<path d="M1146 558 c-55 -12 -150 -72 -165 -105 -48 -102 -49 -102 19 -42 59
51 147 120 180 139 24 14 8 17 -34 8z"/>
<path d="M1910 561 c0 -3 20 -18 43 -33 24 -16 81 -60 125 -98 45 -39 82 -67
81 -63 0 4 -12 32 -27 62 -21 41 -39 60 -82 87 -51 31 -140 60 -140 45z"/>
</g>
</svg>
